<svg xmlns="http://www.w3.org/2000/svg" xmlns:xlink="http://www.w3.org/1999/xlink" width="199" zoomAndPan="magnify" viewBox="0 0 149.25 30.000001" height="40" preserveAspectRatio="xMidYMid meet" version="1.0"><defs><g/></defs><g fill="rgb(0%, 57.649231%, 34.899902%)" fill-opacity="1"><g transform="translate(4.947578, 21.096778)"><g><path d="M 1.53125 0 L 4.214844 0 L 4.214844 -5.128906 L 7.769531 -5.128906 C 11.496094 -5.128906 13.625 -7.152344 13.625 -10.113281 C 13.644531 -13.050781 11.515625 -15.070312 7.792969 -15.070312 L 1.53125 -15.070312 Z M 4.214844 -7.132812 L 4.214844 -13.070312 L 7.515625 -13.070312 C 9.75 -13.070312 10.941406 -11.835938 10.941406 -10.113281 C 10.941406 -8.34375 9.75 -7.132812 7.515625 -7.132812 Z M 4.214844 -7.132812 "/></g></g></g><g fill="rgb(0%, 57.649231%, 34.899902%)" fill-opacity="1"><g transform="translate(19.31599, 21.096778)"><g><path d="M 1.382812 0 L 3.808594 0 L 3.808594 -15.710938 L 1.382812 -15.710938 Z M 1.382812 0 "/></g></g></g><g fill="rgb(0%, 57.649231%, 34.899902%)" fill-opacity="1"><g transform="translate(24.509898, 21.096778)"><g><path d="M 6.726562 0.339844 C 9.324219 0.339844 11.582031 -1.0625 12.175781 -3.152344 L 10.046875 -3.492188 C 9.601562 -2.277344 8.300781 -1.40625 6.832031 -1.40625 C 4.832031 -1.40625 3.40625 -2.746094 3.234375 -4.746094 L 12.515625 -4.746094 L 12.539062 -5.40625 C 12.539062 -8.835938 10.195312 -11.15625 6.75 -11.15625 C 3.234375 -11.15625 0.765625 -8.855469 0.765625 -5.429688 C 0.765625 -1.980469 3.214844 0.339844 6.726562 0.339844 Z M 3.214844 -6.152344 C 3.40625 -8.089844 4.769531 -9.429688 6.707031 -9.429688 C 8.578125 -9.429688 9.960938 -8.027344 10.089844 -6.152344 Z M 3.214844 -6.152344 "/></g></g></g><g fill="rgb(0%, 57.649231%, 34.899902%)" fill-opacity="1"><g transform="translate(37.792689, 21.096778)"><g><path d="M 4.257812 0.339844 C 5.9375 0.339844 7.449219 -0.339844 8.152344 -1.683594 L 8.300781 -1.683594 L 8.300781 0 L 10.730469 0 L 10.730469 -7.066406 C 10.730469 -9.453125 8.792969 -11.070312 6.003906 -11.070312 C 3.152344 -11.070312 1.214844 -9.496094 1.214844 -7.214844 L 3.554688 -7.214844 C 3.554688 -8.535156 4.554688 -9.453125 5.980469 -9.453125 C 7.367188 -9.453125 8.300781 -8.492188 8.300781 -7.152344 L 8.300781 -6.578125 L 5.621094 -6.152344 C 2.214844 -5.621094 0.703125 -4.492188 0.703125 -2.554688 C 0.703125 -0.722656 2.128906 0.339844 4.257812 0.339844 Z M 5.109375 -1.234375 C 3.808594 -1.234375 3.042969 -1.808594 3.042969 -2.746094 C 3.042969 -3.746094 3.808594 -4.40625 5.769531 -4.746094 L 8.300781 -5.171875 L 8.300781 -4.234375 C 8.300781 -2.511719 7.023438 -1.234375 5.109375 -1.234375 Z M 5.109375 -1.234375 "/></g></g></g><g fill="rgb(0%, 57.649231%, 34.899902%)" fill-opacity="1"><g transform="translate(49.755715, 21.096778)"><g><path d="M 5.726562 0.382812 C 8.644531 0.382812 10.621094 -0.957031 10.621094 -3.128906 C 10.621094 -5.707031 8.238281 -6.089844 6.214844 -6.363281 C 4.621094 -6.578125 3.152344 -6.726562 3.152344 -8.089844 C 3.152344 -9.003906 4.109375 -9.644531 5.472656 -9.644531 C 7.023438 -9.644531 8.066406 -8.835938 8.066406 -7.601562 L 10.238281 -7.601562 C 10.238281 -9.792969 8.257812 -11.199219 5.472656 -11.199219 C 2.746094 -11.199219 0.914062 -9.878906 0.914062 -7.855469 C 0.914062 -5.152344 3.386719 -4.875 5.320312 -4.640625 C 6.832031 -4.449219 8.21875 -4.320312 8.21875 -2.851562 C 8.21875 -1.832031 7.175781 -1.171875 5.746094 -1.171875 C 4.023438 -1.171875 2.851562 -2.109375 2.832031 -3.449219 L 0.746094 -3.449219 C 0.746094 -1.148438 2.726562 0.382812 5.726562 0.382812 Z M 5.726562 0.382812 "/></g></g></g><g fill="rgb(0%, 57.649231%, 34.899902%)" fill-opacity="1"><g transform="translate(61.144008, 21.096778)"><g><path d="M 4.257812 0.339844 C 5.9375 0.339844 7.449219 -0.339844 8.152344 -1.683594 L 8.300781 -1.683594 L 8.300781 0 L 10.730469 0 L 10.730469 -7.066406 C 10.730469 -9.453125 8.792969 -11.070312 6.003906 -11.070312 C 3.152344 -11.070312 1.214844 -9.496094 1.214844 -7.214844 L 3.554688 -7.214844 C 3.554688 -8.535156 4.554688 -9.453125 5.980469 -9.453125 C 7.367188 -9.453125 8.300781 -8.492188 8.300781 -7.152344 L 8.300781 -6.578125 L 5.621094 -6.152344 C 2.214844 -5.621094 0.703125 -4.492188 0.703125 -2.554688 C 0.703125 -0.722656 2.128906 0.339844 4.257812 0.339844 Z M 5.109375 -1.234375 C 3.808594 -1.234375 3.042969 -1.808594 3.042969 -2.746094 C 3.042969 -3.746094 3.808594 -4.40625 5.769531 -4.746094 L 8.300781 -5.171875 L 8.300781 -4.234375 C 8.300781 -2.511719 7.023438 -1.234375 5.109375 -1.234375 Z M 5.109375 -1.234375 "/></g></g></g><g fill="rgb(0%, 57.649231%, 34.899902%)" fill-opacity="1"><g transform="translate(73.107034, 21.096778)"><g><path d="M 1.40625 0 L 3.808594 0 L 3.808594 -6.214844 C 3.808594 -7.898438 5.046875 -9.089844 6.621094 -9.089844 C 8.21875 -9.089844 9.195312 -7.855469 9.195312 -6.109375 L 9.195312 0 L 11.625 0 L 11.625 -6.535156 C 11.625 -9.195312 9.984375 -11.15625 7.515625 -11.15625 C 5.960938 -11.15625 4.746094 -10.367188 3.980469 -8.960938 L 3.808594 -8.960938 L 3.808594 -10.8125 L 1.40625 -10.8125 Z M 1.40625 0 "/></g></g></g><g fill="rgb(0%, 57.649231%, 34.899902%)" fill-opacity="1"><g transform="translate(85.964094, 21.096778)"><g><path d="M 5.28125 0.234375 C 5.898438 0.234375 6.707031 0.128906 7.257812 -0.0625 L 7.257812 -1.832031 C 6.875 -1.722656 6.363281 -1.660156 5.980469 -1.660156 C 5.085938 -1.660156 4.511719 -2.320312 4.511719 -3.300781 L 4.492188 -9.027344 L 7.109375 -9.027344 L 7.109375 -10.8125 L 4.492188 -10.8125 L 4.511719 -14.136719 L 2.554688 -14.136719 L 2.171875 -10.8125 L 0.425781 -10.8125 L 0.425781 -9.027344 L 2.085938 -9.027344 L 2.085938 -3.214844 C 2.085938 -1.148438 3.34375 0.234375 5.28125 0.234375 Z M 5.28125 0.234375 "/></g></g></g><g fill="rgb(0%, 76.858521%, 46.669006%)" fill-opacity="1"><g transform="translate(93.790823, 21.096778)"><g><path d="M 1.53125 0 L 4.214844 0 L 4.214844 -6.40625 L 10.898438 -6.40625 L 10.898438 -8.472656 L 4.214844 -8.472656 L 4.214844 -12.75 L 11.941406 -12.75 L 11.941406 -15.070312 L 1.53125 -15.070312 Z M 1.53125 0 "/></g></g></g><g fill="rgb(0%, 76.858521%, 46.669006%)" fill-opacity="1"><g transform="translate(106.392452, 21.096778)"><g><path d="M 1.40625 0 L 3.808594 0 L 3.808594 -5.683594 C 3.808594 -7.640625 4.8125 -8.941406 6.34375 -8.941406 C 6.875 -8.941406 7.535156 -8.792969 8.132812 -8.492188 L 8.132812 -10.730469 C 7.707031 -10.921875 7.195312 -11.027344 6.707031 -11.027344 C 5.40625 -11.027344 4.492188 -10.28125 3.980469 -9.046875 L 3.808594 -9.046875 L 3.808594 -10.8125 L 1.40625 -10.8125 Z M 1.40625 0 "/></g></g></g><g fill="rgb(0%, 76.858521%, 46.669006%)" fill-opacity="1"><g transform="translate(115.013497, 21.096778)"><g><path d="M 6.726562 0.339844 C 9.324219 0.339844 11.582031 -1.0625 12.175781 -3.152344 L 10.046875 -3.492188 C 9.601562 -2.277344 8.300781 -1.40625 6.832031 -1.40625 C 4.832031 -1.40625 3.40625 -2.746094 3.234375 -4.746094 L 12.515625 -4.746094 L 12.539062 -5.40625 C 12.539062 -8.835938 10.195312 -11.15625 6.75 -11.15625 C 3.234375 -11.15625 0.765625 -8.855469 0.765625 -5.429688 C 0.765625 -1.980469 3.214844 0.339844 6.726562 0.339844 Z M 3.214844 -6.152344 C 3.40625 -8.089844 4.769531 -9.429688 6.707031 -9.429688 C 8.578125 -9.429688 9.960938 -8.027344 10.089844 -6.152344 Z M 3.214844 -6.152344 "/></g></g></g><g fill="rgb(0%, 76.858521%, 46.669006%)" fill-opacity="1"><g transform="translate(128.296288, 21.096778)"><g><path d="M 6.726562 0.339844 C 9.324219 0.339844 11.582031 -1.0625 12.175781 -3.152344 L 10.046875 -3.492188 C 9.601562 -2.277344 8.300781 -1.40625 6.832031 -1.40625 C 4.832031 -1.40625 3.40625 -2.746094 3.234375 -4.746094 L 12.515625 -4.746094 L 12.539062 -5.40625 C 12.539062 -8.835938 10.195312 -11.15625 6.75 -11.15625 C 3.234375 -11.15625 0.765625 -8.855469 0.765625 -5.429688 C 0.765625 -1.980469 3.214844 0.339844 6.726562 0.339844 Z M 3.214844 -6.152344 C 3.40625 -8.089844 4.769531 -9.429688 6.707031 -9.429688 C 8.578125 -9.429688 9.960938 -8.027344 10.089844 -6.152344 Z M 3.214844 -6.152344 "/></g></g></g></svg>